<!-- Generated by IcoMoon.io -->
<svg version="1.1" xmlns="http://www.w3.org/2000/svg" width="96" height="96" viewBox="0 0 96 96">
<title>network-wireless-signal-good</title>
<path d="M60 78c0 6.627-5.373 12-12 12v0c-6.627 0-12-5.373-12-12v0c0-6.627 5.373-12 12-12v0c6.627 0 12 5.373 12 12v0z"></path>
<path d="M48 30c-13.002 0-24.12 4.434-30 12v6h12c4.734-3.636 10.554-6 18-6s13.32 2.364 18 6h12v-6c-5.97-7.338-17.238-12-30-12z"></path>
<path d="M48 48c-7.542 0-13.296 1.872-18 6v6h36v-6c-5.022-4.032-10.458-6-18-6z"></path>
</svg>
