<!-- Generated by IcoMoon.io -->
<svg version="1.1" xmlns="http://www.w3.org/2000/svg" width="96" height="96" viewBox="0 0 96 96">
<title>network-wireless-signal-excellent-encrypted</title>
<path d="M60 78c0 6.627-5.373 12-12 12v0c-6.627 0-12-5.373-12-12v0c0-6.627 5.373-12 12-12v0c6.627 0 12 5.373 12 12v0z"></path>
<path d="M48 12c-16.884 0-31.032 6-42 15.516v8.484h8.88c9.12-7.584 19.32-12 33.12-12s24 4.68 33.12 12h8.88v-8.28c-9.84-8.802-25.116-15.72-42-15.72z"></path>
<path d="M48 30c-13.002 0-24.12 4.434-30 12v6h12c4.734-3.636 10.554-6 18-6s13.32 2.364 18 6h12v-6c-5.97-7.338-17.238-12-30-12z"></path>
<path d="M48 48c-7.542 0-13.296 1.872-18 6v6h36v-6c-5.022-4.032-10.458-6-18-6z"></path>
<path d="M80.705 60.197c-3.788 0.304-6.649 2.163-8.208 5.336-0.276 0.56-0.536 1.199-0.536 1.313 0 0.029-0.014 0.052-0.029 0.052s-0.029 0.029-0.031 0.059c-0.003 0.066-0.020 0.131-0.055 0.218-0.059 0.163-0.27 0.992-0.314 1.244-0.011 0.066-0.029 0.159-0.038 0.204-0.006 0.048-0.023 0.162-0.035 0.256-0.011 0.097-0.029 0.183-0.035 0.194-0.029 0.044-0.083 0.653-0.097 1.082-0.003 0.093-0.017 0.166-0.035 0.166-0.014 0-0.011 0.031 0.011 0.070 0.029 0.048 0.029 0.070 0 0.070-0.023 0-0.029 0.020-0.003 0.066 0.020 0.034 0.029 0.073 0.017 0.083-0.011 0.011-0.017 1.355-0.014 2.989l0.003 2.972-0.090 0.070c-0.048 0.038-0.238 0.104-0.425 0.148-0.549 0.124-0.919 0.256-1.258 0.442-0.377 0.207-0.515 0.314-0.829 0.632-0.712 0.719-1.154 1.935-1.22 3.345-0.017 0.342-0.014 10.444 0.003 10.799 0.029 0.605 0.097 1.102 0.159 1.185 0.023 0.029 0.023 0.041-0.003 0.041-0.023 0-0.031 0.017-0.014 0.044 0.014 0.020 0.029 0.055 0.031 0.076 0.003 0.017 0.038 0.118 0.080 0.214 0.038 0.1 0.059 0.183 0.045 0.183s-0.006 0.014 0.011 0.029c0.034 0.023 0.128 0.211 0.128 0.249 0 0.011 0.020 0.041 0.048 0.073s0.041 0.062 0.031 0.073c-0.011 0.011 0.020 0.059 0.070 0.111 0.044 0.048 0.086 0.1 0.086 0.107 0 0.048 0.29 0.404 0.422 0.518 0.083 0.073 0.118 0.111 0.080 0.083-0.062-0.044-0.065-0.044-0.020 0.011 0.023 0.035 0.059 0.062 0.076 0.062s0.059 0.029 0.093 0.059c0.135 0.128 0.231 0.197 0.418 0.297 0.605 0.325 0.923 0.418 1.8 0.529 0.384 0.044 1.593 0.052 10.786 0.048 10.734 0 10.793 0 11.453-0.135 0.764-0.156 1.372-0.463 1.835-0.933 0.556-0.56 0.822-1.182 0.93-2.163 0.042-0.369 0.052-1.406 0.052-5.86 0-2.979-0.006-5.436-0.014-5.46-0.011-0.029-0.023-0.218-0.035-0.422-0.014-0.207-0.029-0.387-0.034-0.401-0.011-0.014-0.023-0.093-0.035-0.176-0.059-0.494-0.263-1.182-0.473-1.6-0.104-0.197-0.37-0.608-0.477-0.729-0.214-0.238-0.549-0.553-0.601-0.567-0.044-0.011-0.128-0.104-0.131-0.152 0-0.023-0.014-0.014-0.029 0.023-0.029 0.066-0.029 0.066-0.052-0.011-0.017-0.048-0.044-0.073-0.073-0.062-0.029 0.011-0.066-0.006-0.086-0.034-0.023-0.029-0.065-0.049-0.090-0.049-0.029 0-0.048-0.017-0.048-0.034 0-0.020-0.023-0.035-0.052-0.035s-0.052-0.017-0.052-0.035c0-0.020-0.031-0.034-0.070-0.034-0.038 0-0.070-0.017-0.070-0.038 0-0.017-0.014-0.023-0.034-0.014-0.017 0.011-0.035 0.003-0.035-0.017s-0.014-0.029-0.034-0.017c-0.017 0.011-0.035 0.006-0.035-0.014 0-0.017-0.029-0.029-0.059-0.020-0.034 0.003-0.104-0.014-0.156-0.038-0.052-0.029-0.107-0.044-0.121-0.044-0.014 0.003-0.055-0.003-0.086-0.014-0.159-0.062-0.187-0.070-0.238-0.080-0.031-0.006-0.093-0.029-0.138-0.044-0.044-0.017-0.093-0.029-0.104-0.023-0.014 0-0.059-0.029-0.104-0.065-0.048-0.045-0.070-0.048-0.052-0.017 0.014 0.029-0.014 0.006-0.062-0.044l-0.090-0.097v-2.927c-0.003-1.61-0.011-3.052-0.017-3.204-0.023-0.404-0.048-0.712-0.066-0.829-0.011-0.083-0.090-0.584-0.138-0.881-0.073-0.432-0.104-0.588-0.124-0.588-0.014 0-0.020-0.034-0.017-0.080 0.003-0.041-0.003-0.093-0.017-0.111-0.017-0.020-0.038-0.083-0.044-0.138-0.031-0.159-0.048-0.235-0.086-0.332-0.020-0.052-0.029-0.1-0.020-0.111 0.011-0.011-0.006-0.076-0.035-0.145-0.031-0.073-0.055-0.163-0.055-0.204 0-0.055-0.006-0.062-0.031-0.023-0.023 0.034-0.038 0.003-0.055-0.11-0.014-0.090-0.041-0.163-0.059-0.163-0.020 0-0.029-0.031-0.017-0.070 0.011-0.038 0.003-0.070-0.014-0.070s-0.031-0.023-0.031-0.052-0.014-0.052-0.034-0.052c-0.017 0-0.020-0.023-0.011-0.059 0.017-0.038 0.011-0.048-0.020-0.029-0.035 0.020-0.038 0.006-0.020-0.052 0.017-0.059 0.014-0.073-0.017-0.052-0.029 0.017-0.038 0.014-0.020-0.011 0.023-0.038-0.097-0.321-0.332-0.785-0.076-0.152-0.19-0.37-0.245-0.484-0.059-0.114-0.118-0.214-0.131-0.225-0.011-0.011-0.055-0.086-0.1-0.169-0.041-0.083-0.090-0.169-0.107-0.19-0.104-0.124-0.29-0.39-0.363-0.515-0.044-0.080-0.083-0.131-0.083-0.118s-0.020 0.006-0.048-0.017c-0.029-0.023-0.041-0.055-0.031-0.070 0.006-0.014-0.023-0.066-0.073-0.114-0.052-0.048-0.090-0.107-0.090-0.128s-0.011-0.029-0.023-0.017c-0.011 0.014-0.044-0.006-0.070-0.044-0.029-0.038-0.066-0.062-0.083-0.052-0.017 0.014-0.031-0.006-0.031-0.041 0-0.038-0.070-0.135-0.156-0.218-0.083-0.083-0.145-0.163-0.135-0.18 0.011-0.014-0.014-0.029-0.052-0.029s-0.076-0.031-0.090-0.070c-0.011-0.038-0.044-0.070-0.073-0.070s-0.048-0.023-0.048-0.052-0.023-0.052-0.055-0.052c-0.029 0-0.041-0.017-0.031-0.035 0.011-0.020-0.003-0.034-0.031-0.034-0.031 0-0.055-0.017-0.055-0.038 0-0.017-0.011-0.029-0.023-0.020-0.017 0.011-0.048-0.003-0.073-0.031-0.023-0.029-0.031-0.049-0.017-0.049 0.014-0.003-0.014-0.029-0.066-0.055-0.055-0.029-0.097-0.066-0.097-0.083 0-0.020-0.023-0.035-0.052-0.035s-0.052-0.017-0.052-0.034c0-0.020-0.017-0.035-0.035-0.035-0.020 0-0.073-0.038-0.118-0.086s-0.090-0.086-0.104-0.086c-0.023 0-0.231-0.142-0.263-0.176-0.011-0.011-0.066-0.044-0.128-0.076-0.059-0.031-0.128-0.076-0.156-0.1-0.062-0.059-0.204-0.145-0.494-0.294-0.131-0.066-0.252-0.138-0.263-0.156-0.011-0.017-0.031-0.032-0.041-0.032-0.014 0-0.090-0.029-0.169-0.062-1.293-0.546-2.298-0.791-3.705-0.902-0.518-0.041-1.742-0.038-2.267 0.003zM82.346 64.392c0.356 0.034 0.484 0.052 0.829 0.107 0.311 0.052 0.978 0.231 1.085 0.294 0.059 0.031 0.256 0.107 0.273 0.104 0.035-0.014 0.943 0.511 1.009 0.588 0.011 0.011 0.080 0.062 0.152 0.121 0.076 0.055 0.169 0.131 0.207 0.169 0.041 0.038 0.121 0.107 0.176 0.148 0.059 0.045 0.080 0.073 0.052 0.059s-0.003 0.020 0.055 0.076c0.093 0.083 0.339 0.37 0.543 0.636 0.035 0.044 0.093 0.138 0.131 0.204s0.097 0.166 0.135 0.225c0.065 0.104 0.252 0.435 0.259 0.467 0.003 0.011 0.035 0.080 0.070 0.156s0.062 0.148 0.059 0.162c-0.003 0.017 0.006 0.029 0.020 0.029 0.017 0 0.031 0.020 0.034 0.041 0.006 0.1 0.1 0.304 0.128 0.28 0.014-0.017 0.017-0.011 0.003 0.014-0.014 0.023 0.023 0.173 0.080 0.335 0.055 0.159 0.093 0.301 0.083 0.311-0.011 0.011 0 0.041 0.023 0.073 0.023 0.031 0.034 0.062 0.023 0.076-0.014 0.011-0.006 0.041 0.014 0.070 0.031 0.034 0.029 0.044-0.006 0.044-0.031 0.003-0.029 0.017 0.017 0.052 0.038 0.029 0.052 0.052 0.029 0.052-0.029 0-0.031 0.023-0.003 0.093 0.020 0.055 0.041 0.128 0.048 0.166 0.029 0.169 0.093 0.701 0.1 0.795 0 0.055 0.017 0.114 0.038 0.128 0.023 0.017 0.020 0.029 0 0.029s-0.038 0.031-0.038 0.070c0 0.038 0.014 0.070 0.032 0.070s0.014 0.020-0.006 0.048c-0.031 0.038-0.031 0.052 0.003 0.070s0.034 0.023 0.003 0.041c-0.066 0.029-0.055 0.083 0.017 0.083 0.034 0 0.044 0.011 0.020 0.029-0.055 0.034-0.062 0.767-0.011 0.767 0.029 0 0.031 0.014 0 0.044-0.029 0.035-0.041 0.743-0.044 2.443l-0.011 2.398-0.118 0.069c-0.118 0.070-0.193 0.070-5.934 0.083-4.202 0.011-5.816 0.003-5.834-0.023-0.014-0.020-0.076-0.038-0.138-0.038-0.238 0-0.225 0.204-0.228-3.127-0.003-1.655-0.003-3.014 0-3.024 0.003-0.011 0.011-0.111 0.017-0.225 0.014-0.225 0.035-0.404 0.090-0.726 0.020-0.114 0.041-0.245 0.045-0.294 0.006-0.048 0.020-0.111 0.034-0.142s0.029-0.093 0.035-0.142c0.003-0.044 0.017-0.097 0.029-0.114 0.011-0.020 0.031-0.097 0.044-0.173 0.029-0.145 0.163-0.549 0.245-0.733 0.029-0.059 0.048-0.118 0.048-0.135 0-0.114 0.65-1.23 0.854-1.465 0.124-0.145 0.681-0.691 0.826-0.812 0.38-0.321 1.375-0.829 1.752-0.895 0.023-0.003 0.097-0.023 0.162-0.048 0.201-0.065 0.943-0.18 1.32-0.201 0.197-0.014 0.359-0.023 0.363-0.029 0.014-0.011 0.539 0.011 0.753 0.031z"></path>
</svg>
