<!-- Generated by IcoMoon.io -->
<svg version="1.1" xmlns="http://www.w3.org/2000/svg" width="96" height="96" viewBox="0 0 96 96">
<title>network-wireless-disabled</title>
<path d="M48 12c-6.6 0-12.768 0.948-18.504 2.64l10.008 10.002c2.553-0.408 5.497-0.642 8.496-0.642h0c13.8 0 24 4.68 33.12 12h8.88v-8.28c-9.84-8.808-25.116-15.72-42-15.72zM9.72 24.552c-1.272 0.948-2.52 1.926-3.72 2.964v8.484h8.88c1.164-0.966 2.34-1.878 3.54-2.742zM48 30c-1.020 0-2.016 0.072-3.012 0.126l13.884 13.89c2.628 1.020 5.022 2.346 7.128 3.984h12v-6c-5.97-7.338-17.238-12-30-12zM22.662 37.5c-1.764 1.318-3.296 2.799-4.624 4.451l-0.038 0.049v6h12c0.6-0.462 1.272-0.84 1.908-1.254zM35.64 50.472c-2.158 0.954-4.018 2.137-5.671 3.554l0.031-0.026v6h15.162zM48 66c-6.627 0-12 5.373-12 12v0c0 6.627 5.373 12 12 12v0c6.627 0 12-5.373 12-12v0c-0.005-1.354-0.233-2.653-0.649-3.864l0.025 0.084-7.578-7.59c-1.132-0.395-2.438-0.625-3.796-0.63h-0.002z"></path>
<path d="M9.186 2.814l-6.366 6.366 84 84 6.372-6.372z"></path>
</svg>
